<svg width="134" height="138" viewBox="0 0 134 138" fill="none" xmlns="http://www.w3.org/2000/svg">
<path d="M108.022 103.682C107.474 104.685 106.639 105.002 105.499 105C95.1101 104.968 84.7212 104.98 74.3297 104.98C74.0819 104.98 73.8341 104.993 73.5887 104.968C72.5825 104.871 71.8539 104.098 71.8465 103.136C71.8415 102.175 72.5677 101.382 73.5664 101.285C73.8737 101.255 74.1835 101.273 74.4933 101.273C84.0173 101.273 93.5414 101.273 103.065 101.273H104.312C104.312 100.908 104.312 100.584 104.312 100.259C104.312 95.8378 104.208 91.414 104.337 86.9977C104.53 80.3485 100.183 75.3077 94.1287 74.1032C89.3778 73.159 84.6741 71.9744 79.948 70.9013C79.8612 70.8815 79.7671 70.9013 79.5812 70.9013C78.7708 75.2953 76.5056 78.755 72.637 81.0895C70.0745 82.636 67.2691 83.2754 64.2927 83.0597C58.3027 82.626 52.4564 78.2667 51.0859 70.8418C48.5704 71.4118 46.0575 71.9793 43.376 72.5865V101.278C43.8146 101.278 44.4243 101.278 45.0339 101.278C48.9298 101.278 52.8257 101.273 56.7215 101.28C58.0003 101.283 58.833 102.014 58.8479 103.107C58.8603 104.028 58.1738 104.829 57.232 104.96C56.9272 105.002 56.615 104.985 56.3052 104.985C43.9683 104.985 31.6289 104.985 19.292 104.985C15.3193 104.985 13.0245 102.685 13.022 98.7101C13.022 87.704 13.022 76.698 13.022 65.6944C13.022 61.8407 14.7989 59.811 18.613 59.3004C18.6675 59.293 18.7195 59.2459 18.8856 59.1592C18.8856 57.9597 18.8831 56.7007 18.8856 55.4393C18.893 52.5521 20.2734 51.1593 23.1309 51.1568C26.6253 51.1568 30.1196 51.1494 33.614 51.1568C36.0601 51.1643 37.5446 52.6215 37.5842 55.0601C37.6065 56.443 37.5892 57.8284 37.5892 59.2435C38.1171 59.3104 38.5458 59.3351 38.9622 59.4244C41.5867 60.0018 43.4057 62.2372 43.4478 64.9485C43.4677 66.1802 43.4503 67.4143 43.4503 68.7625C45.0092 68.4057 46.4738 68.0661 47.941 67.734C50.1689 67.2285 52.3944 66.7105 54.6298 66.2347C55.1404 66.1256 55.3585 65.9472 55.3411 65.3921C55.3015 64.1257 55.6732 62.7155 55.2271 61.6325C54.8157 60.6288 53.5543 59.9795 52.6745 59.1641C48.7216 55.4913 46.5655 50.9685 46.4466 45.5683C46.3524 41.3032 46.3821 37.0356 46.4342 32.7704C46.5507 23.4248 53.9235 15.3977 63.227 14.4287C74.6048 13.2441 84.228 21.8883 84.2701 33.3429C84.285 37.2066 84.3048 41.0727 84.2651 44.9363C84.1933 51.6178 81.3978 56.8891 75.9778 60.7949C75.6705 61.0154 75.4202 61.5061 75.3954 61.8903C75.3186 62.9981 75.4053 64.1158 75.3532 65.226C75.3235 65.8729 75.5168 66.1108 76.1736 66.257C82.4734 67.6547 88.7632 69.0971 95.0556 70.5246C102.141 72.133 106.661 76.9111 107.876 84.0734C107.896 84.1874 107.975 84.289 108.024 84.398V103.691L108.022 103.682ZM16.7295 82.0709C16.7295 87.6644 16.7295 93.2554 16.7295 98.8489C16.7295 100.569 17.4284 101.268 19.1508 101.268C25.2077 101.27 31.2646 101.27 37.324 101.268C39.0365 101.268 39.7379 100.561 39.7379 98.839C39.7379 87.7164 39.7379 76.5914 39.7379 65.4689C39.7379 63.6721 39.0811 63.0204 37.2695 63.0204C31.2423 63.0179 25.2176 63.0179 19.1904 63.0204C17.3837 63.0204 16.732 63.6746 16.732 65.4763C16.732 71.0079 16.732 76.5369 16.732 82.0684L16.7295 82.0709ZM80.7187 40.2028C80.6667 40.2003 80.6122 40.1954 80.5601 40.1929C80.5601 38.3094 80.5155 36.4234 80.5824 34.5399C80.6097 33.7692 80.3222 33.3628 79.6902 33.0232C77.2987 31.742 74.4784 32.0889 72.4041 34.0269C70.704 35.618 68.7635 36.6688 66.429 36.9067C63.2914 37.2264 60.6075 36.25 58.2977 34.1062C56.1218 32.0864 53.3709 31.7271 50.9446 33.0133C50.3672 33.3181 50.102 33.675 50.1119 34.3739C50.1516 37.9253 50.1219 41.4791 50.1367 45.033C50.1392 45.7418 50.1962 46.453 50.2879 47.1544C51.2272 54.329 57.346 60.0092 64.429 60.2893C72.1265 60.5941 78.7683 55.6499 80.1562 48.3117C80.6568 45.6674 80.5502 42.9091 80.7212 40.2028H80.7187ZM79.9133 29.0803C78.409 22.4286 71.0509 17.3307 64.1415 18.0395C57.7624 18.6938 51.019 24.2427 50.9298 28.9043C50.957 28.9167 50.9818 28.944 51.0091 28.944C51.1008 28.939 51.195 28.9365 51.2842 28.9142C55.0512 27.9898 58.2655 28.9737 61.0833 31.6007C63.5442 33.8931 67.0262 33.8188 69.5788 31.5908C70.3868 30.8845 71.2443 30.193 72.1835 29.6875C74.6073 28.3839 77.1797 28.2451 79.9133 29.0803ZM71.6507 62.9857C67.4302 64.3636 63.2741 64.3809 59.0338 62.9782C59.0338 64.5048 59.0437 65.9199 59.0313 67.3326C59.0189 68.4924 58.5505 69.0822 57.413 69.3771C56.553 69.6002 55.6856 69.7935 54.8306 69.9992C55.2197 75.3845 60.3324 79.6521 65.9804 79.3621C71.0534 79.1019 75.948 74.4428 75.8018 70.0141C75.777 69.9967 75.7572 69.967 75.7299 69.9595C74.979 69.7786 74.2281 69.6002 73.4797 69.4193C72.0695 69.0773 71.6581 68.5519 71.6532 67.0823C71.6507 65.7564 71.6532 64.4305 71.6532 62.9857H71.6507ZM33.7974 59.2558V54.9238H22.6476V59.2558H33.7974Z" fill="#132C4D"/>
<path d="M31.5742 10C33.1925 11.5564 34.8406 13.083 36.4118 14.6864C37.0785 15.368 36.957 16.4708 36.3176 17.1251C35.6485 17.8066 34.5828 17.8586 33.7972 17.2291C33.5345 17.0185 33.2966 16.7756 32.8753 16.3865C32.8753 16.8673 32.8753 17.1796 32.8753 17.4943C32.8753 21.3233 32.8704 25.1497 32.8803 28.9787C32.8803 29.8238 32.6225 30.597 31.8121 30.8473C31.2619 31.0158 30.4144 31.0109 30.0228 30.6912C29.5569 30.3095 29.2149 29.5115 29.2025 28.887C29.1306 25.0903 29.1653 21.2935 29.1653 17.4968C29.1653 17.1994 29.1653 16.8995 29.1653 16.4237C28.749 16.7855 28.4739 17.0557 28.1666 17.2837C27.4008 17.8586 26.3624 17.7818 25.7205 17.1251C25.0762 16.4658 24.9572 15.368 25.6239 14.6864C27.1926 13.083 28.8431 11.5564 30.4615 10C30.8332 10 31.2025 10 31.5742 10Z" fill="#FF1300"/>
<path d="M16.9969 33.3479C16.5632 33.7345 16.3278 33.965 16.07 34.1707C15.2547 34.82 14.2584 34.7729 13.5595 34.0616C12.8904 33.3801 12.7789 32.3492 13.4579 31.628C14.8334 30.1658 16.2509 28.7408 17.7206 27.3728C18.4839 26.6615 19.4578 26.7978 20.2955 27.6132C21.5594 28.8399 22.806 30.0865 24.0352 31.3479C24.8902 32.2277 24.915 33.2959 24.1542 34.0716C23.3859 34.8547 22.3649 34.8225 21.4305 33.9873C21.2496 33.8262 21.0712 33.6626 20.7118 33.3355C20.7118 33.851 20.7118 34.1707 20.7118 34.4929C20.7118 37.5535 20.7193 40.6117 20.7069 43.6724C20.7019 44.8868 20.1418 45.6402 19.1976 45.8013C17.9882 46.007 17.0341 45.1668 17.0142 43.7889C16.982 41.5015 17.0043 39.214 17.0019 36.929C17.0019 35.8212 17.0019 34.711 17.0019 33.3553L16.9969 33.3479Z" fill="#FF1300"/>
<path d="M67.1917 103.082C67.2165 104.1 66.3615 104.975 65.3405 104.973C64.3541 104.973 63.5214 104.155 63.4966 103.166C63.4718 102.145 64.3244 101.273 65.3479 101.275C66.3343 101.275 67.1694 102.093 67.1942 103.079L67.1917 103.082Z" fill="#132C4D"/>
<path d="M29.7898 84.004C27.9484 84.004 26.2235 84.0089 24.4986 84.004C22.4615 83.999 21.7006 82.9259 22.3673 80.9978C23.2942 78.3163 24.2161 75.6323 25.1554 72.9583C25.5618 71.8009 26.4218 71.2532 27.3833 71.4812C28.5531 71.7588 29.0983 72.822 28.677 74.0908C28.0946 75.848 27.4775 77.5902 26.8753 79.3423C26.7762 79.6298 26.6944 79.9198 26.5754 80.2965C28.4416 80.2965 30.2259 80.2915 32.0103 80.2965C33.874 80.3039 34.6323 81.372 34.0227 83.1564C33.1057 85.8404 32.1714 88.5194 31.2371 91.1984C30.7637 92.5565 29.8368 93.1117 28.7315 92.7251C27.656 92.3484 27.2817 91.3075 27.7477 89.9494C28.3077 88.3162 28.8802 86.688 29.4453 85.0548C29.5543 84.7425 29.651 84.4253 29.7873 84.004H29.7898Z" fill="#FF1300"/>
<path d="M60.9019 51.8384C61.2587 51.3675 61.5561 50.7851 62.0196 50.4133C62.592 49.9524 63.3603 49.9772 63.9179 50.4505C64.9216 51.308 65.7915 51.251 66.7977 50.4406C67.5164 49.8632 68.53 50.0788 69.1372 50.7603C69.7444 51.4418 69.7667 52.3935 69.1967 53.1395C67.4916 55.365 63.1422 55.3575 61.4843 53.1072C61.2563 52.7974 61.1522 52.3984 60.9019 51.8408V51.8384Z" fill="#132C4D"/>
<path d="M36.5937 26.8579L113.422 67.3017L50.6505 112.536L36.5937 26.8579Z" fill="#17355D" fill-opacity="0.08"/>
</svg>
