<svg width="136" height="132" viewBox="0 0 136 132" fill="none" xmlns="http://www.w3.org/2000/svg">
<path d="M24.7515 94.6107L68.0218 19.338L110.893 83.7468L24.7515 94.6107Z" fill="#17355D" fill-opacity="0.08"/>
<path d="M101.936 68.6751C100.602 66.45 98.955 64.4282 97.0458 62.6718C94.6741 60.4687 92.3222 59.4026 90.0765 59.5066C88.591 59.5532 87.1801 60.1684 86.1351 61.2253C85.8745 61.5171 85.7393 61.8998 85.7589 62.2906C85.7785 62.6814 85.9513 63.0488 86.2399 63.313C86.5308 63.5795 86.9143 63.7217 87.3087 63.7095C87.703 63.6972 88.077 63.5315 88.3508 63.2475C88.5889 63.0021 90.795 60.9598 95.0037 64.8694C96.6993 66.4264 98.162 68.2191 99.3471 70.1926C101.833 74.3156 103.452 78.9024 104.104 83.6725C104.38 85.7357 104.514 87.8155 104.504 89.8971C104.511 91.1688 104.45 92.44 104.322 93.7054C104.281 94.5736 103.989 95.4113 103.482 96.1168C103.175 96.5063 102.749 96.7857 102.27 96.913C101.791 97.0403 101.283 97.0086 100.823 96.8227L87.1562 91.9583C86.5187 91.722 85.9697 91.2946 85.5842 90.7346C85.1987 90.1747 84.9953 89.5093 85.002 88.8295V80.9734L87.1386 82.4768C87.466 82.6995 87.8673 82.7861 88.2575 82.7183C88.6476 82.6504 88.9961 82.4334 89.229 82.1131C89.3424 81.9521 89.423 81.7702 89.4661 81.578C89.5092 81.3858 89.514 81.187 89.4803 80.9929C89.4465 80.7988 89.3749 80.6133 89.2695 80.4469C89.164 80.2805 89.0268 80.1365 88.8657 80.0232L80.4257 74.0844C78.6826 72.8858 76.617 72.2441 74.5016 72.2441C72.3862 72.2441 70.3206 72.8858 68.5775 74.0844L60.1375 80.0232C59.8121 80.2522 59.591 80.6011 59.5229 80.9931C59.4548 81.3852 59.5452 81.7882 59.7742 82.1135C60.0033 82.4389 60.3522 82.66 60.7442 82.7281C61.1362 82.7962 61.5392 82.7058 61.8646 82.4768L64.0012 80.9734V88.8295C64.0079 89.5093 63.8046 90.1747 63.419 90.7347C63.0335 91.2947 62.4845 91.722 61.847 91.9584L48.1363 96.8392C45.42 97.8062 44.7463 94.7247 44.6043 92.8035C44.3862 89.7578 44.4851 86.6977 44.8995 83.6725C45.5515 78.9024 47.17 74.3156 49.656 70.1927C50.841 68.2192 52.3038 66.4265 53.9995 64.8698C58.1913 60.9748 60.3974 62.9864 60.6494 63.2445C60.9178 63.5362 61.2908 63.7097 61.6868 63.7272C62.0828 63.7448 62.4696 63.6048 62.7627 63.338C63.0559 63.0712 63.2315 62.6993 63.2512 62.3034C63.2709 61.9075 63.1332 61.5199 62.868 61.2253C61.823 60.1685 60.4122 59.5532 58.9267 59.5066C56.6832 59.4096 54.3291 60.469 51.9574 62.6722C50.0481 64.4283 48.4013 66.45 47.0676 68.6751C44.3799 73.1381 42.6308 78.1024 41.9272 83.2645C41.4867 86.4724 41.3796 89.7173 41.6077 92.9472C41.6737 94.6549 42.1853 96.3156 43.0919 97.7643C43.7558 98.7089 44.7144 99.4063 45.8174 99.7474C46.9204 100.089 48.1054 100.054 49.1866 99.6491L62.8534 94.7847C64.0738 94.3398 65.1271 93.5291 65.8695 92.4632C66.6119 91.3974 67.0071 90.1283 67.0013 88.8294V78.8624L70.3047 76.538C71.5445 75.7014 73.006 75.2545 74.5016 75.2545C75.9973 75.2545 77.4588 75.7014 78.6986 76.538L82.0019 78.8624V88.8295C81.9961 90.1284 82.3914 91.3974 83.1337 92.4633C83.8761 93.5292 84.9294 94.3399 86.1498 94.7848L99.7727 99.6327C100.525 99.9159 101.331 100.029 102.132 99.9634C102.933 99.8979 103.71 99.6556 104.406 99.254C105.214 98.74 105.892 98.045 106.385 97.224C106.878 96.4031 107.174 95.4786 107.248 94.5238C107.502 92.2093 107.571 89.8781 107.451 87.5527C107.388 86.1193 107.271 84.6862 107.076 83.2645C106.372 78.1024 104.623 73.1381 101.936 68.6751Z" fill="#FF1300"/>
<path d="M65.6469 66.2851L57.1886 71.7395C56.8543 71.9551 56.6194 72.2947 56.5355 72.6836C56.4516 73.0724 56.5255 73.4786 56.741 73.8129C56.96 74.1433 57.2994 74.375 57.6868 74.4586C58.0742 74.5422 58.4789 74.4711 58.8146 74.2605L67.3067 68.7845C67.3279 68.771 67.3492 68.7563 67.3697 68.7413C68.6946 67.7797 69.7636 66.5081 70.4833 65.0377C71.2029 63.5673 71.5513 61.943 71.4978 60.3068L71.4343 58H68.4333L68.4991 60.3895C68.5383 61.53 68.2991 62.6628 67.8021 63.69C67.3052 64.7173 66.5654 65.608 65.6469 66.2851Z" fill="#FF1300"/>
<path d="M77.5698 58L77.5063 60.3068C77.4528 61.9429 77.8012 63.5673 78.5208 65.0377C79.2405 66.5081 80.3095 67.7797 81.6344 68.7413C81.6549 68.7563 81.6762 68.771 81.6974 68.7845L90.1895 74.2605C90.5253 74.4707 90.9299 74.5415 91.3172 74.4579C91.7045 74.3743 92.0438 74.1429 92.2631 73.8129C92.4786 73.4786 92.5525 73.0724 92.4686 72.6835C92.3847 72.2947 92.1498 71.9551 91.8155 71.7395L83.3572 66.2851C82.4387 65.608 81.6989 64.7173 81.202 63.6901C80.705 62.6628 80.4658 61.53 80.505 60.3895L80.5708 58H77.5698Z" fill="#FF1300"/>
<path d="M52.3557 35.681H55.5998V39.6379C55.6015 41.1876 56.2179 42.6732 57.3137 43.769C58.4094 44.8648 59.8951 45.4812 61.4448 45.483H64.2347V49.0001H67.2348V43.983C67.2348 43.5852 67.0767 43.2036 66.7954 42.9223C66.5141 42.641 66.1326 42.483 65.7347 42.483H61.4447C60.6904 42.4822 59.9673 42.1821 59.434 41.6488C58.9006 41.1154 58.6007 40.3922 58.5999 39.6379V34.181C58.5999 33.7832 58.4418 33.4017 58.1605 33.1204C57.8792 32.8391 57.4977 32.681 57.0998 32.681H53.2361L56.9856 27.6489C57.1907 27.3552 57.2941 27.0024 57.28 26.6444C57.1719 24.6743 57.4228 22.7009 58.0205 20.8206C60.215 14.3485 66.6188 10.0001 73.9558 10.0001C77.1093 10.0298 80.1988 10.8943 82.9097 12.5058C85.6206 14.1172 87.8563 16.4181 89.3891 19.1743C90.9204 21.8714 91.7343 24.9162 91.7529 28.0177C91.7529 35.5136 87.1897 39.4965 82.5159 42.9338C82.3263 43.0731 82.1722 43.2551 82.066 43.4651C81.9597 43.675 81.9043 43.907 81.9043 44.1423V49.0001H84.9045V44.897C89.7789 41.2434 94.753 36.5562 94.753 28.0177C94.7193 24.9019 94.0153 21.8299 92.6888 19.0103C91.3623 16.1908 89.4445 13.6898 87.0655 11.6773C83.3752 8.63631 78.7376 6.98172 73.9558 7.00015C65.3326 7.00015 57.7869 12.167 55.1771 19.8633C55.1706 19.882 55.1625 19.9065 55.1544 19.9321C54.5104 21.9841 54.2102 24.1286 54.266 26.2786L50.247 31.6717C49.9706 32.0386 49.8024 32.4755 49.7615 32.933C49.7206 33.3906 49.8086 33.8504 50.0156 34.2605C50.2343 34.692 50.5694 35.0537 50.9829 35.3047C51.3965 35.5557 51.872 35.6861 52.3557 35.681Z" fill="#132C4D"/>
<path d="M91.0024 52H58.001C51.6379 52.0071 45.5374 54.5379 41.0379 59.0372C36.5384 63.5365 34.0074 69.6368 34 75.9999V101.5C34 101.898 34.158 102.279 34.4394 102.561C34.7207 102.842 35.1022 103 35.5001 103C35.8979 103 36.2795 102.842 36.5608 102.561C36.8421 102.279 37.0001 101.898 37.0001 101.5V75.9999C37.0065 70.4322 39.2212 65.0943 43.1582 61.1574C47.0953 57.2205 52.4333 55.0061 58.001 55H91.0024C96.5702 55.0061 101.908 57.2205 105.845 61.1574C109.782 65.0943 111.997 70.4322 112.003 75.9999V101.5C112.005 101.897 112.164 102.277 112.445 102.557C112.726 102.837 113.107 102.994 113.503 102.994C113.9 102.994 114.281 102.837 114.562 102.557C114.843 102.277 115.002 101.897 115.003 101.5V75.9999C114.996 69.6368 112.465 63.5365 107.966 59.0372C103.466 54.5379 97.3655 52.0071 91.0024 52Z" fill="#132C4D"/>
</svg>
