<svg width="512" height="512" viewBox="0 0 512 512" fill="none" xmlns="http://www.w3.org/2000/svg">
<g clip-path="url(#clip0_141_2)">
<path d="M412.677 347.055C411.599 345.892 410.296 344.96 408.847 344.316C407.397 343.672 405.832 343.329 404.247 343.308H326.222V155.269C326.222 148.247 324.661 140.443 318.42 140.443H193.58C189.726 140.895 186.122 142.584 183.308 145.257C180.495 147.93 178.623 151.443 177.975 155.269V343.308H107.753C105.414 343.338 103.137 344.069 101.217 345.406C99.2966 346.743 97.8214 348.625 96.9815 350.809C96.1417 352.993 95.9757 355.379 96.5052 357.658C97.0346 359.937 98.2351 362.005 99.9517 363.595L248.198 508.722C249.215 509.76 250.429 510.585 251.769 511.148C253.109 511.711 254.547 512.001 256.001 512.001C257.454 512.001 258.893 511.711 260.232 511.148C261.572 510.585 262.786 509.76 263.803 508.722L412.05 363.595C414.326 361.485 415.671 358.557 415.789 355.455C415.907 352.353 414.787 349.332 412.677 347.055ZM193.58 117.037H318.42C321.524 117.037 324.501 115.803 326.696 113.609C328.891 111.414 330.124 108.437 330.124 105.332C330.124 102.228 328.891 99.2514 326.696 97.0564C324.501 94.8615 321.524 93.6284 318.42 93.6284H193.58C190.476 93.6284 187.499 94.8615 185.304 97.0564C183.109 99.2514 181.876 102.228 181.876 105.332C181.876 108.437 183.109 111.414 185.304 113.609C187.499 115.803 190.476 117.037 193.58 117.037ZM193.58 70.2217H318.42C321.524 70.2217 324.501 68.9885 326.696 66.7936C328.891 64.5986 330.124 61.6217 330.124 58.5175C330.124 55.4134 328.891 52.4364 326.696 50.2415C324.501 48.0465 321.524 46.8134 318.42 46.8134H193.58C190.476 46.8134 187.499 48.0465 185.304 50.2415C183.109 52.4364 181.876 55.4134 181.876 58.5175C181.876 61.6217 183.109 64.5986 185.304 66.7936C187.499 68.9885 190.476 70.2217 193.58 70.2217ZM193.58 23.4067H318.42C321.524 23.4067 324.501 22.1736 326.696 19.9786C328.891 17.7837 330.124 14.8067 330.124 11.7026C330.124 8.59846 328.891 5.62148 326.696 3.42653C324.501 1.23158 321.524 -0.00152588 318.42 -0.00152588H193.58C190.476 -0.00152588 187.499 1.23158 185.304 3.42653C183.109 5.62148 181.876 8.59846 181.876 11.7026C181.876 14.8067 183.109 17.7837 185.304 19.9786C187.499 22.1736 190.476 23.4067 193.58 23.4067Z" fill="#162B4C"/>
</g>
<defs>
<clipPath id="clip0_141_2">
<rect width="512" height="512" fill="white"/>
</clipPath>
</defs>
</svg>
