<svg width="16" height="16" viewBox="0 0 16 16" fill="none" xmlns="http://www.w3.org/2000/svg">
<g clip-path="url(#clip0_205_80)">
<mask id="mask0_205_80" style="mask-type:luminance" maskUnits="userSpaceOnUse" x="0" y="0" width="16" height="16">
<path d="M16 0H0V16H16V0Z" fill="white"/>
</mask>
<g mask="url(#mask0_205_80)">
<path d="M15.5747 5.72254L10.6561 4.97121L8.45141 0.275207C8.28674 -0.0754596 7.71141 -0.0754596 7.54674 0.275207L5.34274 4.97121L0.424079 5.72254C0.333264 5.73649 0.248049 5.7752 0.17779 5.83441C0.107532 5.89362 0.0549464 5.97104 0.0258085 6.05818C-0.00332931 6.14532 -0.00789321 6.2388 0.0126179 6.32836C0.0331291 6.41793 0.0779221 6.5001 0.142079 6.56588L3.71541 10.2286L2.87074 15.4066C2.85566 15.4992 2.86694 15.5941 2.90329 15.6806C2.93964 15.7671 2.99959 15.8417 3.07629 15.8957C3.153 15.9497 3.24336 15.9811 3.33704 15.9862C3.43073 15.9913 3.52396 15.9699 3.60608 15.9246L7.99941 13.4966L12.3927 15.9252C12.4749 15.9706 12.5681 15.992 12.6618 15.9869C12.7555 15.9818 12.8458 15.9504 12.9225 15.8964C12.9992 15.8423 13.0592 15.7678 13.0955 15.6813C13.1319 15.5948 13.1432 15.4998 13.1281 15.4072L12.2834 10.2292L15.8567 6.56654C15.9211 6.50079 15.966 6.41856 15.9867 6.3289C16.0073 6.23925 16.0028 6.14564 15.9736 6.05838C15.9445 5.97112 15.8918 5.8936 15.8214 5.83435C15.751 5.7751 15.6657 5.73641 15.5747 5.72254Z" fill="#F6B586"/>
</g>
<mask id="mask1_205_80" style="mask-type:alpha" maskUnits="userSpaceOnUse" x="0" y="0" width="16" height="16">
<mask id="mask2_205_80" style="mask-type:luminance" maskUnits="userSpaceOnUse" x="0" y="0" width="16" height="16">
<path d="M16 0H0V16H16V0Z" fill="white"/>
</mask>
<g mask="url(#mask2_205_80)">
<path d="M15.5747 5.72254L10.6561 4.97121L8.45141 0.275207C8.28674 -0.0754596 7.71141 -0.0754596 7.54674 0.275207L5.34274 4.97121L0.424079 5.72254C0.333264 5.73649 0.248049 5.7752 0.17779 5.83441C0.107532 5.89362 0.0549464 5.97104 0.0258085 6.05818C-0.00332931 6.14532 -0.00789321 6.2388 0.0126179 6.32836C0.0331291 6.41793 0.0779221 6.5001 0.142079 6.56588L3.71541 10.2286L2.87074 15.4066C2.85566 15.4992 2.86694 15.5941 2.90329 15.6806C2.93964 15.7671 2.99959 15.8417 3.07629 15.8957C3.153 15.9497 3.24336 15.9811 3.33704 15.9862C3.43073 15.9913 3.52396 15.9699 3.60608 15.9246L7.99941 13.4966L12.3927 15.9252C12.4749 15.9706 12.5681 15.992 12.6618 15.9869C12.7555 15.9818 12.8458 15.9504 12.9225 15.8964C12.9992 15.8423 13.0592 15.7678 13.0955 15.6813C13.1319 15.5948 13.1432 15.4998 13.1281 15.4072L12.2834 10.2292L15.8567 6.56654C15.9211 6.50079 15.966 6.41856 15.9867 6.3289C16.0073 6.23925 16.0028 6.14564 15.9736 6.05838C15.9445 5.97112 15.8918 5.8936 15.8214 5.83435C15.751 5.7751 15.6657 5.73641 15.5747 5.72254Z" fill="#F6B586"/>
</g>
</mask>
<g mask="url(#mask1_205_80)">
<rect x="10" y="2" width="12" height="16" fill="white"/>
</g>
</g>
<defs>
<clipPath id="clip0_205_80">
<rect width="16" height="16" fill="white"/>
</clipPath>
</defs>
</svg>
