<svg width="21" height="21" viewBox="0 0 21 21" fill="none" xmlns="http://www.w3.org/2000/svg">
<path fill-rule="evenodd" clip-rule="evenodd" d="M7.13902 10.3114L1.6473 4.81972C1.52789 4.70032 1.43317 4.55858 1.36854 4.40257C1.30391 4.24657 1.27065 4.07936 1.27065 3.9105C1.27065 3.74164 1.30391 3.57443 1.36854 3.41843C1.43317 3.26243 1.52789 3.12068 1.6473 3.00129L3.38945 1.25914C3.63055 1.01811 3.95752 0.882704 4.29845 0.882704C4.63937 0.882704 4.96634 1.01811 5.20745 1.25914L10.6992 6.75086L16.1909 1.25914C16.4321 1.01808 16.7591 0.882668 17.1001 0.882668C17.4411 0.882668 17.7681 1.01808 18.0093 1.25914L19.751 3.00129C19.8704 3.12068 19.9652 3.26243 20.0298 3.41843C20.0944 3.57443 20.1277 3.74164 20.1277 3.9105C20.1277 4.07936 20.0944 4.24657 20.0298 4.40257C19.9652 4.55858 19.8704 4.70032 19.751 4.81972L14.2597 10.3114L19.751 15.8031C19.8705 15.9225 19.9652 16.0642 20.0299 16.2201C20.0945 16.3761 20.1278 16.5433 20.1278 16.7121C20.1278 16.881 20.0945 17.0482 20.0299 17.2041C19.9652 17.3601 19.8705 17.5018 19.751 17.6211L18.0093 19.3633C17.8899 19.4827 17.7482 19.5774 17.5922 19.6421C17.4362 19.7067 17.2689 19.7399 17.1001 19.7399C16.9312 19.7399 16.764 19.7067 16.608 19.6421C16.452 19.5774 16.3103 19.4827 16.1909 19.3633L10.6992 13.8716L5.20745 19.3633C5.08812 19.4827 4.94642 19.5775 4.79045 19.6422C4.63447 19.7068 4.46729 19.7401 4.29845 19.7401C4.1296 19.7401 3.96242 19.7068 3.80645 19.6422C3.65047 19.5775 3.50877 19.4827 3.38945 19.3633L1.6473 17.6211C1.52785 17.5018 1.43309 17.3601 1.36844 17.2041C1.30379 17.0482 1.27051 16.881 1.27051 16.7121C1.27051 16.5433 1.30379 16.3761 1.36844 16.2201C1.43309 16.0642 1.52785 15.9225 1.6473 15.8031L7.13902 10.3114Z" fill="white"/>
</svg>
