<svg width="16" height="16" viewBox="0 0 16 16" fill="none" xmlns="http://www.w3.org/2000/svg">
<g clip-path="url(#clip0_210_9)">
<path fill-rule="evenodd" clip-rule="evenodd" d="M8 0C3.5875 0 0 3.5875 0 8C0 12.4125 3.5875 16 8 16C12.4125 16 16 12.4125 16 8C16 3.5875 12.4125 0 8 0Z" fill="#51BB2E"/>
<path fill-rule="evenodd" clip-rule="evenodd" d="M11.8687 5.30317C12.0624 5.49692 12.0624 5.81567 11.8687 6.00942L7.18115 10.6969C7.08428 10.7938 6.95615 10.8438 6.82803 10.8438C6.6999 10.8438 6.57178 10.7938 6.4749 10.6969L4.13115 8.35317C3.9374 8.15942 3.9374 7.84067 4.13115 7.64692C4.3249 7.45317 4.64365 7.45317 4.8374 7.64692L6.82803 9.63755L11.1624 5.30317C11.3562 5.1063 11.6749 5.1063 11.8687 5.30317Z" fill="white"/>
</g>
<defs>
<clipPath id="clip0_210_9">
<rect width="16" height="16" fill="white"/>
</clipPath>
</defs>
</svg>
