<svg width="19" height="19" viewBox="0 0 19 19" fill="none" xmlns="http://www.w3.org/2000/svg">
<path id="Vector" fill-rule="evenodd" clip-rule="evenodd" d="M9.5 0C14.7523 0 19 4.24773 19 9.5C19 14.7523 14.7523 19 9.5 19C4.24773 19 0 14.7523 0 9.5C0 4.24773 4.24773 0 9.5 0ZM3.84592 9.87311C4.19033 9.5287 4.50604 9.21299 4.85045 8.86858C5.79758 9.81571 6.77341 10.7915 7.72054 11.7387C9.87311 9.5861 12.0257 7.43353 14.1782 5.28097C14.5227 5.62538 14.8384 5.94109 15.1828 6.2855C12.6858 8.78248 10.2175 11.2508 7.72054 13.7477C6.429 12.4562 5.13746 11.1647 3.84592 9.87311Z" fill="#132C4D"/>
</svg>
