<?xml version="1.0" encoding="UTF-8"?>
<svg id="Layer_1" data-name="Layer 1" xmlns="http://www.w3.org/2000/svg" viewBox="0 0 46.9 40.81">
  <defs>
    <style>
      .cls-1 {
        fill: #fff;
        stroke: #7a7c7b;
        stroke-miterlimit: 10;
      }

      .cls-2 {
        fill: #5fbb46;
        stroke-width: 0px;
      }
    </style>
  </defs>
  <rect class="cls-1" x="2.97" y=".5" width="35.82" height="35.82" rx="3.01" ry="3.01"/>
  <path class="cls-2" d="m1.1,26.22c2.58,2.09,3.57,2.39,5.73,5.55,3.53,5.16,3.01,7.3,4.06,8.28,1.05.98,5.85,1.78,9.13-2.71,3.28-4.49,8.39-16.9,14.94-24.34,6.55-7.44,9.61-9.59,11.58-10.72,1.97-1.12-4.26-.88-16.51,9.55-8.52,7.25-14.55,17.27-14.55,17.27,0,0-1.7-5.48-5.5-9.13-3.8-3.65-13.17,2.77-8.88,6.25Z"/>
</svg>