<?xml version="1.0" encoding="UTF-8"?>
<svg id="layer" xmlns="http://www.w3.org/2000/svg" viewBox="0 0 600 103.18">
  <defs>
    <style>
      .cls-1 {
        fill: #949492;
        stroke-width: 0px;
      }
    </style>
  </defs>
  <path class="cls-1" d="m56.1,28.2c0-1.3-.9-1.9-2.7-1.9h-10.5c-1-.1-1.9.1-2.8.6-.7.6-1.2,1.4-1.4,2.3l-7.6,21.1c-.4,1.3-.8,2.7-1.2,4.2s-.8,2.7-1.1,3.8h-.1c-.3-1.2-.7-2.6-1.1-4.1-.4-1.5-.8-2.9-1.2-4.1l-7.2-20.9c-.2-.8-.7-1.5-1.3-2.1-.7-.5-1.6-.8-2.4-.7H2.4c-1.6,0-2.4.5-2.4,1.6,0,.4.1.8.2,1.1l20.4,50.4c.2.8.8,1.5,1.5,1.9.8.3,1.6.4,2.4.4h6.7c.8,0,1.7-.1,2.4-.4.6-.3,1-.9,1.4-2l20.6-49.7c.4-.6.5-1.1.5-1.5Z"/>
  <path class="cls-1" d="m100.6,32.8c-2.1-2.2-4.7-4-7.5-5.2-3.1-1.3-6.4-1.9-9.7-1.9-4-.1-8,.6-11.7,2.1-3.4,1.3-6.5,3.3-9.1,5.8-2.6,2.6-4.6,5.6-5.9,9-1.4,3.7-2.2,7.7-2.1,11.7-.1,4.1.6,8.2,2.1,12,1.3,3.4,3.2,6.5,5.8,9,2.6,2.5,5.7,4.4,9.1,5.7,3.8,1.4,7.9,2.1,12,2,3.4,0,6.9-.3,10.3-.9,3.4-.5,6.7-1.5,9.8-2.9.5-.3,1-.6,1.5-.9.4-.4.7-1,.6-1.6,0-.6-.1-1.2-.3-1.8-.2-.8-.4-1.6-.6-2.5s-.5-1.7-.7-2.5c-.2-.6-.4-1.3-.5-1.9-.3-1-.9-1.6-1.8-1.6-.5,0-.9.1-1.3.3-2.2.9-4.5,1.6-6.8,2.1-2.4.5-4.8.8-7.2.8-3.3,0-6.5-.9-9.2-2.8-2.8-1.8-4.6-4.8-5.1-8h31.1c1.4,0,2.4-.2,3.1-.6s.9-1.3.9-2.6v-1.4c0-3.8-.4-7.7-1.2-11.4-1-3.8-2.9-7.3-5.6-10Zm-28.2,15.4c.3-2.5,1.4-4.9,3.2-6.8,1.7-1.9,4.2-3,6.8-2.9,1.3,0,2.6.3,3.7.8s2,1.3,2.7,2.2c.7.9,1.3,2,1.6,3.1.3,1.1.5,2.3.5,3.5l-18.5.1Z"/>
  <path class="cls-1" d="m204,27.3h-11.5c-2.1,0-3.4,1.1-4.1,3.2l-8.5,26.9-9.9-27.9c-.5-1.5-1.6-2.2-3.3-2.2h-12.8c-.5,0-1,.2-1.4.5-.4.4-.6.9-.6,1.4,0,.4.1.7.2,1.1l19.4,49-1.6,4c-.5,1.1-1.1,2.1-1.8,3.1-.9,1.3-2,2.4-3.3,3.2-1.4.9-3.9.8-5.5.8-.6,0-1.3,0-1.9-.1-.7-.1-1.4-.2-2.1-.2h-.8c-.5,0-1,.1-1.4.4-.3.3-.6,1-.7,2l-1,7c-.1.3-.1.5-.1.8,0,1.1.7,1.8,2,2.1,1.1.2,2.2.4,3.2.5,1.1.1,2.3.2,3.4.2,3.6,0,4.9.3,7.6-.3,2.6-.6,5-1.6,7.1-3.1s3.9-3.4,5.4-5.6c1.7-2.6,3.1-5.5,4.2-8.5l21.4-55.2c.1-.4.2-.8.2-1.2.1-1.2-.5-1.9-1.8-1.9Z"/>
  <path class="cls-1" d="m362.4,0l-11.6,2.3c-1.7.2-2.7.9-2.7,3.2v76.4h11.5c2.9,0,5.2-2.3,5.2-5.2V2.9c0-1.9-.8-2.9-2.4-2.9Z"/>
  <path class="cls-1" d="m386.6,0l-11.6,2.3c-1.7.2-2.7.9-2.7,3.2v76.4h11.5c2.9,0,5.2-2.3,5.2-5.2V2.9c0-1.9-.8-2.9-2.4-2.9Z"/>
  <path class="cls-1" d="m287.9,27.8c-.5-.4-1-.5-1.6-.4h-11.2c-.9-.1-1.9.2-2.6.8-.6.6-1,1.3-1.1,2.1l-6.6,28.5h-.1l-8.1-29.1c-.4-1.6-1.7-2.3-3.8-2.3h-7.7c-1.9,0-2.4.9-2.9,2.7l-9.2,28.4h-.1l-5.9-28.4c-.1-.7-.5-1.4-1-1.9s-1.4-.7-2.6-.7h-11.7c-.7,0-1.4.1-2,.4-.5.2-.8.7-.8,1.3,0,.3,0,.6.1.9l14.6,48.4c.2.9.7,1.7,1.4,2.3.7.6,1.6.9,2.5.9h9c1,.1,2-.2,2.8-.7.7-.6,1.2-1.4,1.4-2.3l7.5-19.9h.2l8.1,19.6c.3.9.7,1.8,1.4,2.5.7.6,1.7.9,2.6.8h8.6c1,.1,2-.2,2.8-.8.7-.6,1.1-1.4,1.3-2.3l14.8-48.5c.1-.4.2-.7.2-1.1.1-.6-.1-1-.3-1.2Z"/>
  <path class="cls-1" d="m334.2,32.8c-2.1-2.2-4.7-4-7.5-5.2-3.1-1.3-6.4-1.9-9.7-1.9-4-.1-8,.6-11.7,2.1-3.4,1.3-6.5,3.3-9.1,5.8-2.6,2.6-4.6,5.6-5.9,9-1.4,3.7-2.2,7.7-2.1,11.7-.1,4.1.6,8.2,2.1,12,1.3,3.4,3.2,6.5,5.8,9,2.6,2.5,5.7,4.4,9.1,5.7,3.8,1.4,7.9,2.1,12,2,3.4,0,6.9-.3,10.3-.9,3.4-.5,6.7-1.5,9.8-2.9.5-.3,1-.6,1.5-.9.4-.4.7-1,.6-1.6,0-.6-.1-1.2-.3-1.8-.2-.8-.4-1.6-.6-2.5s-.5-1.7-.7-2.5c-.2-.6-.4-1.3-.5-1.9-.3-1-.9-1.6-1.8-1.6-.5,0-.9.1-1.3.3-2.2.9-4.5,1.6-6.8,2.1-2.4.5-4.8.8-7.2.8-3.3,0-6.5-.9-9.2-2.8-2.8-1.8-4.6-4.8-5.1-8h31.1c1.4,0,2.4-.2,3.1-.6.6-.4.9-1.3.9-2.6v-1.4c0-3.8-.4-7.7-1.2-11.4-1-3.8-2.9-7.3-5.6-10Zm-28.2,15.4c.3-2.5,1.4-4.9,3.2-6.8,1.7-1.9,4.2-3,6.8-2.9,1.3,0,2.6.3,3.7.8s2,1.3,2.7,2.2c.7.9,1.3,2,1.6,3.1.3,1.1.5,2.3.5,3.5l-18.5.1Z"/>
  <path class="cls-1" d="m147.1,27c-1-.2-2.1-.4-3.1-.4-6.6,0-9.8,1.7-13.8,6.5l-.2-3.3c-.1-1.7-1.1-2.2-3.2-2.2h-9.3c-1.9,0-3.2.6-3.2,3.2v51l12.6-.1c2,0,3.6-1.6,3.6-3.6v-32.7c2.8-2.8,7.2-3.7,10.9-3.7,1.9,0,2.4.3,3.6.3,1,0,1.6-.6,1.8-1.8l1.7-10.5c0-1.2,0-2.3-1.4-2.7Z"/>
  <path class="cls-1" d="m429.5,40.4c-4.5,0-8.9,1.5-12.4,4.3v-19.3c0-1-.5-1.6-1.3-1.6-.1,0-.3,0-3.1.4-1.1.2-1.3.8-1.3,1.8v51.4c0,1.6,1,1.8,1.6,1.8h2.5c.6,0,1.6-.2,1.6-1.8v-27.5c3-2.7,7.7-4.7,11.2-4.7,5.6,0,8,3.1,8,10.3v21.9c0,1.6,1,1.8,1.6,1.8h2.5c.6,0,1.6-.2,1.6-1.8v-22.8c0-9.6-4.1-14.2-12.5-14.2Z"/>
  <path class="cls-1" d="m467.2,40.4c-10.4,0-17.7,8.1-17.7,19.6,0,12.3,6.7,19.7,18,19.7,3.2,0,8.1-.7,11.2-2.2.8-.2,1.2-1.1,1-1.8v-.1l-.4-1.8c0-.4-.3-.7-.6-.9-.4-.2-.9-.1-1.2.1-2.3,1-6.3,1.7-9.4,1.7-9,0-12.4-7.2-12.5-14.1h24c2.2,0,2.6-.6,2.6-2.5v-1.5c-.3-9.7-6.2-16.2-15-16.2Zm9,16h-20.5c1.1-8.4,6.8-11.4,11.5-11.4,6.7,0,9.1,5.3,9.1,10.3-.1.3-.1.7-.1,1.1Z"/>
  <path class="cls-1" d="m521.2,74.7h-.5c-.5.1-1-.2-1.2-.7-.3-.5-.3-2.1-.3-4v-27c0-1.2-.5-1.8-1.6-1.8h-2.3c-1.5,0-1.8.9-1.8,1.6v1.8c-2.9-3-7-4.2-10.1-4.2-9.8,0-16.6,8.4-16.6,20.3,0,5.1,1.3,9.8,3.7,13.1,2.7,3.9,6.8,5.9,11.8,5.9,4.4,0,9.2-2.6,11.4-6,.2,3.3,2,5.3,4.7,5.3h2.9c.7,0,1.3-.1,1.3-1.2v-1.9c-.1-.8-.5-1.2-1.4-1.2Zm-7.8-8.9c-1.4,4.3-5.5,9-11,9-4.9,0-9.9-4.4-9.9-14.4,0-9.2,4.4-15.3,11-15.3,4.2,0,8,2.4,9.8,6.1v14.6h.1Z"/>
  <path class="cls-1" d="m533.3,23.7c-.1,0-.3,0-3.1.4-1.1.2-1.3.8-1.3,1.8v51.4c0,1.6,1,1.8,1.6,1.8h2.5c.6,0,1.6-.2,1.6-1.8V25.4c0-1.1-.5-1.7-1.3-1.7Z"/>
  <path class="cls-1" d="m563.4,75c0-.3-.2-.6-.5-.8-.4-.2-.8-.2-1.2,0-1.5.5-3.1.8-4.6.8-1.9,0-3.4-.5-4.2-1.3-1.2-1.2-1.4-3.2-1.4-5.9v-22.2h8.8c.7,0,1.3-.1,1.3-1.2v-2c0-.9-.4-1.3-1.3-1.3h-8.8v-9.1c0-1-.5-1.6-1.3-1.6h-.3l-2.8.4c-1.1.2-1.3.8-1.3,1.8v8.6h-4.3c-.8,0-1.1.3-1.1,1.2v2.1c0,.9.4,1.2,1.3,1.2h4.1v21.5c0,4.3.2,7.6,2.4,9.9,1.9,2,5.5,2.7,8.2,2.7,2.2,0,4.4-.4,6.5-1.2.8-.3,1.3-.7,1-1.6l-.5-2Z"/>
  <path class="cls-1" d="m587.5,40.4c-4.5,0-8.9,1.5-12.4,4.3v-19.3c0-1-.5-1.6-1.3-1.6-.1,0-.3,0-3.1.4-1.1.2-1.3.8-1.3,1.8v51.4c0,1.6,1,1.8,1.6,1.8h2.5c.6,0,1.6-.2,1.6-1.8v-27.5c3-2.7,7.7-4.7,11.2-4.7,5.6,0,8,3.1,8,10.3v21.9c0,1.6,1,1.8,1.6,1.8h2.5c.6,0,1.6-.2,1.6-1.8v-22.8c.1-9.6-4-14.2-12.5-14.2Z"/>
</svg>