<svg width="168" height="151" viewBox="0 0 168 151" fill="none" xmlns="http://www.w3.org/2000/svg">
<path d="M61.5895 44.3823L148.31 52.2717L41.6344 129.144L61.5895 44.3823Z" fill="#17355D" fill-opacity="0.08"/>
<path d="M72.5084 16C74.8077 16.4658 76.9211 17.2686 78.6144 18.8642C78.7313 18.9732 78.9785 19.0129 79.1593 19.0029C83.6943 18.7378 86.8363 20.9455 89.3776 24.0995C92.2086 27.6129 93.6308 31.6837 94.3831 35.9652C95.9036 44.5999 94.6223 53.0141 91.9242 61.297C91.2915 63.2444 90.4755 65.1374 89.8003 67.0749C89.6488 67.511 89.6115 68.0462 89.7312 68.4872C90.1751 70.1324 90.6695 71.7676 91.2304 73.3806C91.4005 73.8687 91.7461 74.389 92.1714 74.7037C97.0254 78.3062 101.43 82.2928 104.835 87.1714C108.735 92.7561 110.822 98.9007 111.327 105.526C111.42 106.757 111.476 107.994 111.5 109.23C111.518 110.224 110.963 110.851 110.077 110.945C109.198 111.036 108.514 110.541 108.358 109.508C108.158 108.194 108.031 106.866 107.98 105.541C107.648 96.9805 103.955 89.7655 97.7724 83.5986C95.4278 81.2621 92.828 79.1462 90.4861 77.0525C87.1527 79.4435 84.1754 81.8295 80.9324 83.8364C77.8009 85.774 74.4037 87.3473 71.0862 89.0148C70.6316 89.2427 69.8873 89.2576 69.4009 89.0792C68.3296 88.6852 68.1993 87.3845 69.1297 86.7601C69.7411 86.3488 70.4296 86.0193 71.1181 85.7219C77.2879 83.0634 82.7107 79.3964 87.6976 75.1298C88.107 74.778 88.2718 74.4857 88.0777 73.9406C87.6285 72.6844 87.2191 71.4059 86.9134 70.1125C86.722 69.2974 86.3073 68.9852 85.4328 68.8489C81.6022 68.2543 78.2528 66.7107 75.5095 64.1339C75.1134 63.7598 74.8423 63.0363 74.9088 62.5185C75.039 61.4977 76.1794 61.1062 77.1071 61.6711C77.66 62.0081 78.1598 62.4218 78.6649 62.8207C80.9855 64.6468 83.6757 65.6651 86.8018 66.0789C87.3759 64.5551 87.998 63.0363 88.519 61.4877C90.9327 54.3248 92.2485 47.0181 91.5972 39.4859C91.1959 34.8576 90.1831 30.373 87.4371 26.3914C85.9644 24.2581 84.1143 22.5188 81.2859 22.0455C80.6134 21.934 79.8744 21.8919 79.2178 22.0356C78.1864 22.2611 77.4155 22.0009 76.6951 21.3468C75.3128 20.0857 73.7391 19.1491 71.7534 18.993C69.3158 18.8023 67.0244 19.4019 64.7622 20.1452C64.4512 20.2467 64.1455 20.3706 63.8345 20.4747C62.6968 20.8538 61.9046 20.5738 61.5537 19.6794C61.2161 18.8122 61.5723 18.0614 62.6675 17.7393C64.6506 17.1571 66.6708 16.6814 68.6725 16.1586C68.8267 16.1189 68.9729 16.052 69.1217 16C70.2488 16 71.3759 16 72.5057 16L72.5084 16Z" fill="#132C4D"/>
<path d="M30.1198 35.5935C31.643 39.4438 33.5064 42.9621 36.901 45.5587C40.2663 48.1331 44.0969 48.6583 48.2251 47.5805C52.8159 46.3838 57.3987 45.1722 61.9816 43.9507C62.7339 43.75 63.425 43.693 63.9753 44.3174C64.8073 45.2614 64.3235 46.4061 62.9252 46.7778C59.6157 47.6623 56.3115 48.5567 52.9914 49.4041C50.8222 49.9566 48.6451 50.4868 46.4441 50.913C45.3888 51.1162 44.2723 51.0567 43.0575 51.1211C43.4722 52.4987 43.7513 53.9259 44.3334 55.239C45.5403 57.9496 45.6386 60.519 43.9081 63.0809C43.427 63.792 43.225 64.6666 42.8581 65.5536C44.0437 65.8683 45.1336 66.2226 46.2554 66.4357C47.4595 66.6636 48.0497 67.3103 48.3394 68.3807C48.8232 70.1745 49.3629 71.9584 49.9344 73.7275C50.7558 76.2646 52.5926 77.2483 55.3466 76.557C58.3504 75.8013 61.3223 74.9465 64.3102 74.1413C65.0093 73.953 65.7137 73.7771 66.4262 73.6383C67.4017 73.445 68.1035 73.7572 68.38 74.6219C69.1482 77.0154 69.8792 79.4187 70.573 81.832C70.8149 82.6719 70.3045 83.3706 69.4247 83.6085C68.5102 83.8563 67.9015 83.4574 67.6277 82.7066C67.2024 81.5421 66.894 80.3379 66.5245 79.1561C66.2959 78.4227 66.0513 77.6943 65.7882 76.8841C63.7971 77.4068 61.8938 77.9073 59.9905 78.4078C58.5896 78.777 57.1941 79.171 55.7852 79.5104C52.0716 80.4048 48.5335 78.7522 47.2097 75.395C46.5398 73.6928 46.1065 71.9064 45.5961 70.1497C45.4154 69.5253 45.0884 69.1636 44.3653 69.0149C43.1718 68.7697 42.0022 68.4228 40.8272 68.1032C39.1126 67.6349 38.8202 67.1691 39.4396 65.618C40.1653 63.797 40.9575 61.9982 41.7709 60.2093C42.0846 59.518 42.1271 58.8911 41.8905 58.1652C41.1143 55.7742 40.4232 53.3585 39.6602 50.965C39.5619 50.6553 39.2881 50.2762 38.9904 50.1598C34.8196 48.527 31.9912 45.5637 29.7397 42.0503C27.9958 39.3274 26.797 36.3963 26.0447 33.2992C25.8533 32.5138 25.9889 31.8745 26.7412 31.4483C27.4669 31.0371 28.1341 31.2105 28.7295 31.7358C29.9709 32.8334 31.4728 32.8804 33.0173 32.5831C35.9174 32.0256 38.4693 30.6927 40.9734 29.3002C44.1872 27.5138 47.3373 25.6283 50.5325 23.8121C50.9658 23.5668 51.5905 23.2497 51.9706 23.3761C52.5102 23.5569 53.0711 24.0426 53.3236 24.5331C53.6453 25.1526 53.212 25.7249 52.5979 26.0866C51.0296 27.0108 49.4665 27.9424 47.8822 28.8394C45.4499 30.2194 43.0336 31.6292 40.5481 32.9226C37.3502 34.5876 34.054 36.0271 30.1145 35.591L30.1198 35.5935Z" fill="#132C4D"/>
<path d="M63.8822 94.4731C64.6344 93.3805 65.4585 92.4612 66.7637 91.988C69.826 90.8755 73.0983 92.7387 73.2392 95.8953C73.3748 98.9131 73.2738 101.951 73.0664 104.966C72.9016 107.352 71.296 109.111 69.4645 110.645C68.7999 111.202 68.0264 111.069 67.4123 110.486C66.8328 109.939 66.7504 109.3 67.2262 108.636C67.3007 108.534 67.3804 108.427 67.4814 108.353C69.717 106.671 70.2194 104.389 70.137 101.871C70.0812 100.174 70.1264 98.4721 70.1237 96.7724C70.1237 96.5568 70.129 96.3363 70.0971 96.1257C69.9563 95.2139 69.3076 94.5995 68.4969 94.6416C67.5319 94.6936 67.0933 95.3106 66.987 96.1009C66.886 96.8641 66.9126 97.6421 66.9099 98.4151C66.9072 99.4656 66.9578 100.516 66.9338 101.567C66.9152 102.362 66.6388 103.043 65.6579 103.197C64.6743 103.348 64.1108 102.875 63.7546 102.067C62.8109 99.9265 61.8087 97.8081 60.9235 95.65C60.6923 95.09 60.6444 94.3765 60.7826 93.7893C61.285 91.651 61.9151 89.54 62.4706 87.4117C62.8641 85.9053 62.6727 85.266 61.6147 84.545C61.4685 84.8597 61.3169 85.1471 61.1973 85.4444C60.0649 88.2442 58.9112 91.0366 57.8373 93.8562C57.6193 94.4285 57.5502 95.1297 57.6725 95.7243C58.5736 100.12 59.5386 104.5 60.4849 108.888C60.5115 109.01 60.5461 109.129 60.5567 109.252C60.6338 110.063 60.1314 110.764 59.3179 110.917C58.4407 111.083 57.7576 110.769 57.5449 109.959C57.1275 108.373 56.7926 106.767 56.447 105.167C55.7532 101.961 55.0488 98.757 54.4188 95.541C54.2965 94.9117 54.3258 94.1783 54.5544 93.5811C55.9686 89.9266 57.4572 86.2943 58.9298 82.6595C59.4216 81.4455 60.1978 81.0689 61.5668 81.3513C64.7434 82.0079 66.4421 84.6466 65.6526 87.8032C65.1794 89.6961 64.5999 91.5643 64.0789 93.4449C63.9858 93.7818 63.9486 94.1312 63.8875 94.4756L63.8822 94.4731Z" fill="#132C4D"/>
<path d="M78.0457 102.288C78.0457 100.311 78.0351 98.3333 78.0457 96.3561C78.083 90.3478 82.8519 85.7492 89.0722 85.717C95.3137 85.6848 100.213 90.204 100.317 96.1827C100.391 100.509 100.359 104.835 100.362 109.161C100.362 110.229 99.7211 110.883 98.7322 110.873C97.8205 110.865 97.1905 110.199 97.1851 109.176C97.1639 104.882 97.1825 100.586 97.1373 96.2917C97.1001 92.4959 94.5801 89.5921 90.7389 88.8289C86.0099 87.8874 81.3393 91.2422 81.2596 95.7541C81.1798 100.201 81.2729 104.654 81.2383 109.101C81.233 109.607 81.0416 110.278 80.6641 110.571C80.2973 110.856 79.553 110.895 79.0293 110.794C78.2876 110.647 78.0776 110.013 78.0776 109.339C78.0803 106.99 78.0776 104.641 78.0776 102.295H78.0431L78.0457 102.288Z" fill="#132C4D"/>
<path d="M29.3357 81.2844C31.6564 81.2844 33.9744 81.2794 36.295 81.2844C37.5869 81.2869 38.2595 81.7948 38.2701 82.7537C38.2807 83.7125 37.6002 84.2477 36.3243 84.2502C31.7175 84.2551 27.1108 84.2427 22.5067 84.2576C20.5502 84.2626 19.1334 85.6079 19.1892 87.3473C19.2397 88.9057 20.4386 90.043 22.1584 90.157C23.8305 90.2685 25.2526 89.2477 25.5158 87.7363C25.5477 87.5554 25.5371 87.3671 25.5583 87.1813C25.662 86.2744 26.2681 85.7343 27.1666 85.7467C28.1049 85.7591 28.7084 86.3661 28.7323 87.3151C28.8174 90.7095 25.2048 93.6133 21.5338 93.1054C18.1551 92.6396 15.7866 89.9216 16.0152 86.7725C16.2385 83.7026 18.9898 81.3166 22.3817 81.2844C24.7024 81.2621 27.0204 81.2794 29.341 81.2794L29.3357 81.2844Z" fill="#FF0000"/>
<path d="M29.2001 72.3796C26.9486 72.3796 24.6944 72.3945 22.4428 72.3747C18.9871 72.3449 16.2172 69.954 16.0125 66.8519C15.8052 63.7003 18.1923 60.9897 21.563 60.5487C24.7848 60.1275 27.8896 62.1988 28.618 65.2662C28.695 65.5933 28.7323 65.9401 28.7216 66.2746C28.6871 67.2682 28.1023 67.8926 27.2197 67.9223C26.2867 67.9545 25.654 67.3549 25.5477 66.3341C25.351 64.4312 23.8225 63.2543 21.9059 63.5269C20.1621 63.7746 19.0775 65.0184 19.1918 66.6388C19.3008 68.1701 20.6432 69.3816 22.3551 69.4015C24.9044 69.4337 27.4563 69.4114 30.0082 69.4114C32.1295 69.4114 34.2481 69.4064 36.3694 69.4138C37.5869 69.4188 38.2461 69.9292 38.2727 70.8534C38.302 71.8122 37.6108 72.3722 36.3588 72.3772C33.9743 72.3846 31.5899 72.3772 29.2028 72.3772L29.2001 72.3796Z" fill="#FF0000"/>
<path d="M79.6405 53.0314C79.6538 56.8396 77.6389 59.5353 74.3161 60.4471C73.2288 60.7444 72.4154 60.4248 72.1257 59.5824C71.82 58.6979 72.2134 58.0363 73.2714 57.6448C75.6 56.7876 76.6527 55.405 76.4267 53.081C76.3071 51.8446 75.8951 50.6107 75.4405 49.4313C75.2092 48.8268 74.6537 48.299 74.1459 47.8283C73.5425 47.2708 72.7477 47.0949 71.9396 47.417C71.1049 47.7515 70.8391 48.4675 70.8391 49.243C70.8391 49.7609 71.0012 50.2787 71.0491 50.799C71.1182 51.5844 70.7115 52.1246 69.914 52.3277C69.1404 52.5235 68.3961 52.3748 68.0771 51.6167C66.9554 48.9383 67.7688 45.3704 71.3441 44.4809C73.4893 43.9458 75.3475 44.5999 76.8387 46.0815C78.8829 48.1107 79.4651 50.6553 79.6379 53.0265L79.6405 53.0314Z" fill="#132C4D"/>
<path d="M36.6966 78.3161C34.6763 78.3161 32.656 78.3236 30.6358 78.3137C29.4263 78.3087 28.767 77.7884 28.7484 76.8617C28.7298 75.9029 29.413 75.3553 30.6783 75.3528C34.6843 75.3479 38.6929 75.3479 42.6989 75.3528C43.9696 75.3528 44.6501 75.893 44.6368 76.8518C44.6235 77.8057 43.9509 78.3112 42.659 78.3161C40.6707 78.3211 38.685 78.3161 36.6966 78.3161Z" fill="#FF0000"/>
</svg>
