<?xml version="1.0" encoding="UTF-8"?>
<svg id="layer" xmlns="http://www.w3.org/2000/svg" viewBox="0 0 458 499.9">
  <defs>
    <style>
      .cls-1 {
        fill: #949492;
        stroke-width: 0px;
      }
    </style>
  </defs>
  <path class="cls-1" d="m252.1,256.1v73.1c-1.3,25.3,8.2,50.1,26.3,67.9h0v-19.3c-7-13.5-10.5-28.6-10.1-43.8v-14.2h22.6v86.7c-1,37.9-25.3,71.2-61,83.8-35.7-12.6-59.9-45.9-61-83.7,25.5-17.6,38.3-43,38.3-77.5v-9.3h33.1v-16.3h-88.7v88h0c6.5-4.5,12-10.3,16.3-17v-54.6h22.6v14.2c1.2,22.3-7,44-22.6,60-4.7,4.5-9.9,8.4-15.6,11.5-3.4,2-7,3.8-10.7,5.3-32.9-13.7-49-39.7-49-76.4v-61.9h97.8v18.5h16.1v-35H76.4v73.1c0,44.7,21,74.4,65.1,91,4.2-1.6,8.5-3.3,12-5.1,6.9,40,31.6,67.9,75.8,84.8,44.1-17,69-44.5,75.8-84.8,3.8,1.9,7.8,3.6,12,5.2,44-17,65-46.3,65-91v-73.1h-130v-.1Zm113.8,77.9c0,37.1-16,63.1-48.9,76.4-3.7-1.5-7.3-3.2-10.8-5.3,0-4.8.7-9.7.7-14.8v-86.8h-38.9v-30.9h97.8v61.4h.1Zm81.4-188h5.1l4.1-20.7c-9-3.8-18.8-5.7-28.6-5.5-30.2,0-50.9,19.3-50.9,45.2s18.1,42.4,47.1,42.4c12.4.3,24.5-4,33.9-12.1l-3.7-4.6c-7.6,5.5-16.7,8.5-26,8.5-20.6,0-36-14.2-36-38.2,0-21.6,12.3-33.9,32.4-33.9,15.8,0,22.1,4.8,22.1,16.5l.5,2.4Zm-117.7-18.6c10.5.4,11.5,1.2,11.5,7v58c0,5.9-.9,6.6-11.5,7v5.9h37.7v-5.9c-10.6,0-11.5-1.2-11.5-7v-57.9c0-5.9.8-6.6,11.5-7v-5.9h-37.7v5.8Zm-21.9,13.4c0-11.2,2-13.2,11.5-13.3v-6h-30.4v5.9c9.4,0,11.4,2.1,11.4,13.3v42.4l-54.3-61.6h-24.2l.9,5.4c9.8,1.6,11,2.6,11,11.4v47.9c0,11.2-2,13.2-11.5,13.3v5.9h30.4v-5.9c-9.4,0-11.5-2.1-11.5-13.3v-47.7l60.6,67.9h6v-65.6h.1Zm-135.7-13.4c10.5.4,11.5,1.2,11.5,7v58c0,5.9-.9,6.6-11.5,7v5.9h37.8v-5.9c-10.5,0-11.5-1.2-11.5-7v-57.9c0-5.9.9-6.6,11.5-7v-5.9h-37.8v5.8Zm-7.8,53.9h-4.8l-1.8,3.8c-5.2,10.9-9.4,13.6-18.9,13.6h-15.6c-5.3,0-5.9-2.3-5.9-9.8v-54.3c0-5.9,1-7.1,13.1-7.3v-5.9h-38.8v5.9c10.1.4,10.9,1.2,10.9,7v53.2c0,9.8-.6,10.5-9.9,12.3v5.5h67.2l4.5-24Zm-93.9-35.3h5.2l4-20.7c-9-3.8-18.8-5.7-28.6-5.5-30.2,0-50.9,19.3-50.9,45.2s18.1,42.4,47.1,42.4c12.4.3,24.5-4,33.9-12.1l-3.6-4.6c-7.6,5.5-16.7,8.5-26.1,8.5-20.6,0-36-14.2-36-38.2,0-21.6,12.3-33.9,32.4-33.9,15.8,0,22.1,4.8,22.1,16.5l.5,2.4ZM342.3,41.3c0-22.5,11.2-34.4,30-34.4s31.8,14.3,31.8,39c0,22.4-11.2,33.9-30,33.9-18.8.1-31.8-14-31.8-38.5m-15.7,3.9c0,25.5,17,42.4,45.1,42.4s48.1-18.8,48.1-45.2S402.8,0,374.8,0c-28,0-48.2,18.8-48.2,45.2m-25.9,34.6c-10.5-.5-11.5-1.3-11.5-7.1v-24.4l23.4-33.3c4.3-6,5.7-7.5,11.9-7.7V1.4h-28.8v5.9c7.4,0,9.2,1.4,9.2,4.2-.2,2.2-1.1,4.3-2.5,6l-16.3,23.2-17-24.1c-1.3-1.5-2.2-3.3-2.4-5.3,0-2.7,1.9-4.1,9.5-4.2V1.2h-37.1v5.9c5.6,0,7,1.7,11.2,7.6l24.1,33.9v23.2c0,5.9-.8,6.6-11.5,7.1v5.9h37.7v-5h.1Zm-113.7-29.1l13.6-30.6,13.4,30.6h-27Zm1,29.2c-8.5,0-10.5-1.7-10.5-5.8.2-1.8.7-3.5,1.4-5.1l5.3-11.8h32.8l5.6,13c.7,1.4,1.1,2.9,1.2,4.5,0,3.5-2.2,4.8-9.5,4.9v5.9h34.7v-5.9c-6.1,0-7.3-1.7-10.2-8.5L207.2.6h-5.9l-31.5,70.7c-3,6.6-4.1,8-10.3,8.5v5.9h28.3l.2-5.8Zm-118.8,0c-9.4,0-11.5-2.2-11.5-13.4V18.2l33.2,64.7h3.1L127,17.9v54.6c0,5.9-.8,6.6-10.9,7.1v5.9h36.4v-5.9c-10-.5-10.9-1.3-10.9-7.1V14.5c0-5.8.8-6.6,10.9-7V1.6h-25.5l-30.9,60.9L65.8,1.6h-27v5.9c9.7,1,11.5,2,11.5,12.7v46.3c0,11.2-2,13.2-11.5,13.4v5.9h30.4v-5.9Z"/>
</svg>