<?xml version="1.0" encoding="utf-8"?>
<!-- Generator: Adobe Illustrator 25.0.1, SVG Export Plug-In . SVG Version: 6.00 Build 0)  -->
<svg version="1.0" id="Layer_1" xmlns="http://www.w3.org/2000/svg" xmlns:xlink="http://www.w3.org/1999/xlink" x="0px" y="0px"
	 viewBox="0 0 903.6 586.2" style="enable-background:new 0 0 903.6 586.2;" xml:space="preserve">
<style type="text/css">
	.st0{fill:none;}
</style>
<path d="M191.2,346.5h-33.8v-53.7c0-5.6-4-9.3-8.8-9.3s-10.2,3.8-10.2,9.3v53.7H108V261l-9.8-7c13.8-4.9,27.2-10.7,40.2-17.5v44.9
	c4.1-5.1,14-11.6,26.6-11.6c16,0,22.8,10.6,22.8,23.2v45.3C187.7,339.7,188.9,342.4,191.2,346.5z M540.1,346.5h-33.9v-53.7
	c0-5.6-4-9.3-8.8-9.3s-10.2,3.8-10.2,9.3v53.7h-30.4V261l-9.8-7c13.8-4.9,27.2-10.7,40.2-17.5v44.9c4.1-5.1,14-11.6,26.6-11.6
	c16,0,22.8,10.6,22.8,23.2v45.3C536.6,339.7,537.7,342.4,540.1,346.5L540.1,346.5z M265.2,333.7v5.4c-6.7,5.8-14.2,10.6-30.2,10.6
	c-25.3,0-40.7-16.9-40.7-37.8c0-24.9,15.9-41.9,39.1-41.9c23,0,31.7,15.8,31.7,35.6h-42.1c1.8,22.9,14.6,33.3,26.2,33.3
	C254.9,338.9,261.2,337.1,265.2,333.7L265.2,333.7z M232,301.1c6.8,0,7.5-1.9,7.5-7.6c0-4.3-0.8-15-7.5-15s-7.5,10.7-7.5,15
	C224.5,299.2,225.3,301.1,232,301.1z M805.5,333.7v5.4c-6.7,5.8-14.2,10.6-30.2,10.6c-25.3,0-40.7-17-40.7-37.8
	c0-24.9,15.9-41.9,39.2-41.9c23,0,31.7,15.8,31.7,35.6h-42.1c1.8,22.9,14.6,33.3,26.2,33.3C795.2,338.9,801.5,337.1,805.5,333.7
	L805.5,333.7z M772.3,301.1c6.8,0,7.5-1.9,7.5-7.6c0-4.4-0.8-15-7.5-15s-7.5,10.7-7.5,15C764.8,299.2,765.5,301.1,772.3,301.1z
	 M351,333.1l3.4,0.7c-1.5,6.2-6,15.9-20.4,15.9c-12,0-15.4-7.4-17.9-15.2c-2.1,7.2-10.3,15.2-26,15.2c-14,0-21.7-6.2-21.7-18
	c0-13,12.7-22.6,44.5-32v-13.7c0-7.1-3.8-9.6-8-9.6c-3.8,0-9.8,4-9.8,10.4c0.1,2.8,0.5,5.6,1,8.4c0,3.9-4.5,9.8-11.3,9.8
	c-7.6,0-11.2-5.5-11.2-11.9c0-10.4,9.7-23.2,35-23.2c26.3,0,34.7,13.9,34.7,27.2v35.3c0,2.2,0.8,4.4,3.2,4.4
	C348.5,336.9,350,335.7,351,333.1L351,333.1z M313,330.4v-26.2c-10.6,4.3-14.3,15-14.3,23.2c0,6.6,2,9.7,7,9.7
	C309.9,337.1,313,334.3,313,330.4L313,330.4z M394.6,346.5h-35V261l-9.3-7c10.6-3.8,30.2-11.9,39.9-17.5v101.8
	C390.2,339.6,391.6,342.3,394.6,346.5L394.6,346.5z M586.1,346.5h-35V261l-9.3-7c10.6-3.8,30.2-11.9,39.9-17.5v101.8
	C581.7,339.6,583.1,342.3,586.1,346.5L586.1,346.5z M447,337.7v5.4c-5.1,4.3-13.5,6.7-22.6,6.7c-15,0-20.2-11.1-20.2-20.6v-50.3
	h-7.3l38-33.4v27.5h12.1v5.9h-12.1v54.5c0,4.4,2.5,6.4,5.6,6.4C442.4,339.7,445.7,338.8,447,337.7L447,337.7z M615.1,268.8
	c-8.7,0-15.5-7.2-15.5-16.2s6.9-16.2,15.5-16.2s15.5,7.2,15.5,16.2S623.7,268.8,615.1,268.8L615.1,268.8z M635.5,346.5h-35.7v-53.9
	l-9.8-7c13.8-4.9,27.3-10.7,40.3-17.6v70.2C630.3,339.6,632,342.4,635.5,346.5L635.5,346.5z M732.4,346.5h-35v-53.9
	c0-5.7-4-9.3-8.8-9.3s-10.2,3.8-10.2,9.3v53.9H648v-53.9l-9.8-7c13.5-4.9,26.7-10.7,39.4-17.6v14.8c6.6-8.4,16.7-13.4,27.4-13.4
	c16,0,22.8,10.6,22.8,23.2v45.5C727.7,339.6,729.3,342.4,732.4,346.5L732.4,346.5z"/>
<rect x="83.6" y="217.2" class="st0" width="736.4" height="151.8"/>
</svg>
